# Blender v2.78 (sub 0) OBJ File: ''
# www.blender.org
mtllib puddle1.mtl
o Circle_Circle.001
v 0.101166 -0.005327 -1.049016
v 0.032322 -0.005332 -1.042588
v -0.033991 -0.005345 -1.023455
v -0.095376 -0.005367 -0.992055
v -0.149726 -0.005354 -0.944588
v -0.235505 -0.004888 -0.868965
v -0.410949 -0.002706 -0.609911
v -0.624543 -0.000839 -0.406954
v -0.742290 -0.000576 -0.212688
v -0.780129 -0.000579 -0.065116
v -0.785478 -0.000581 0.069640
v -0.758751 -0.000583 0.198955
v -0.697904 -0.000584 0.311439
v -0.610985 -0.000584 0.402328
v -0.506301 -0.000583 0.470383
v -0.386932 -0.000551 0.542889
v -0.252076 -0.000551 0.557441
v -0.083656 -0.000500 0.590273
v 0.129508 -0.000390 0.645720
v 0.439219 -0.000242 0.685470
v 0.806123 -0.000096 0.662778
v 1.131403 0.000011 0.548304
v 1.328767 0.000053 0.274619
v 1.151270 -0.000614 -0.202004
v 0.775845 -0.003907 -0.567698
v 0.585817 -0.005368 -0.752477
v 0.505776 -0.005477 -0.835788
v 0.458728 -0.005430 -0.895976
v 0.397891 -0.005396 -0.949192
v 0.325334 -0.005367 -0.992084
v 0.243643 -0.005345 -1.023476
v 0.170173 -0.005332 -1.042599
v 0.067410 -0.005319 -1.043544
v -0.000016 -0.005328 -1.030825
v -0.063756 -0.005346 -1.005676
v -0.121473 -0.005371 -0.968754
v -0.182350 -0.005213 -0.907595
v -0.308048 -0.003862 -0.735888
v -0.512583 -0.001675 -0.508285
v -0.700315 -0.000573 -0.303124
v -0.762380 -0.000578 -0.133761
v -0.782364 -0.000580 0.001121
v -0.772210 -0.000582 0.133985
v -0.728662 -0.000584 0.255690
v -0.653439 -0.000584 0.356884
v -0.560890 -0.000569 0.448689
v -0.447117 -0.000569 0.504184
v -0.320350 -0.000564 0.537003
v -0.171070 -0.000534 0.566532
v 0.014261 -0.000454 0.611403
v 0.262495 -0.000321 0.664006
v 0.619972 -0.000166 0.680601
v 0.976185 -0.000036 0.614589
v 1.248690 0.000043 0.432329
v 1.316640 0.000043 0.055385
v 0.934038 -0.002373 -0.420796
v 0.659006 -0.004912 -0.678169
v 0.530751 -0.005473 -0.798005
v 0.481390 -0.005443 -0.864159
v 0.427608 -0.005403 -0.920849
v 0.361048 -0.005371 -0.968723
v 0.284094 -0.005346 -1.005701
v 0.203881 -0.005328 -1.030841
v 0.136149 -0.005319 -1.043550
v 0.103472 -0.005291 -1.033626
v 0.138580 -0.005247 -1.013290
v 0.109177 -0.005184 -0.989162
v 0.318794 -0.005330 -0.978406
v 0.138021 -0.004956 -0.888368
v 0.110825 -0.004883 -0.854838
v 0.082929 -0.005112 -0.956936
v 0.099727 -0.004761 -0.788320
v 0.106600 -0.004718 -0.756833
v 0.083730 -0.004686 -0.728372
v 0.083945 -0.004637 -0.695781
v 0.067843 -0.004526 -0.658354
v 0.067761 -0.004236 -0.608260
v 0.058697 -0.003592 -0.534395
v 0.046649 -0.002512 -0.425408
v 0.037473 -0.001243 -0.273221
v -0.018909 -0.000591 -0.108914
v -0.044566 -0.000583 0.022756
v -0.119577 -0.000583 0.119520
v -0.118784 -0.000584 0.197974
v -0.192133 -0.000584 0.255429
v -0.169534 -0.000584 0.311437
v -0.247725 -0.000584 0.356884
v -0.209230 -0.000584 0.402328
v -0.286931 -0.000584 0.436097
v -0.496209 -0.000584 0.456891
v -0.167671 -0.000549 0.522552
v -0.248192 -0.000557 0.537051
v 0.086186 -0.004820 -0.820475
vn 0.0004 -1.0000 0.0014
vn 0.0004 -1.0000 0.0015
vn 0.0008 -1.0000 0.0014
vn 0.0000 -1.0000 0.0003
vn -0.0006 -1.0000 0.0013
vn 0.0012 -1.0000 0.0013
vn 0.0011 -1.0000 0.0020
vn -0.0016 -1.0000 0.0009
vn 0.0012 -1.0000 0.0012
vn 0.0000 -1.0000 0.0014
vn -0.0022 -1.0000 0.0073
vn -0.0036 -1.0000 0.0015
vn -0.0039 -1.0000 0.0040
vn -0.0032 -1.0000 0.0058
vn -0.0046 -1.0000 -0.0022
vn 0.0002 -1.0000 0.0099
vn -0.0009 -1.0000 -0.0002
vn 0.0002 -1.0000 0.0040
vn -0.0000 -1.0000 -0.0000
vn 0.0007 -1.0000 -0.0012
vn 0.0014 1.0000 -0.0028
vn -0.0001 1.0000 -0.0035
vn -0.0009 -1.0000 0.0072
vn -0.0016 -1.0000 0.0007
vn 0.0007 -1.0000 0.0023
vn 0.0004 -1.0000 0.0042
vn 0.0002 -1.0000 -0.0000
vn 0.0001 -1.0000 0.0005
vn 0.0006 -1.0000 -0.0008
vn 0.0003 -1.0000 -0.0000
vn -0.0003 -1.0000 0.0006
vn 0.0006 -1.0000 -0.0002
vn 0.0002 -1.0000 0.0006
vn -0.0001 -1.0000 -0.0010
vn 0.0005 -1.0000 -0.0001
vn 0.0004 -1.0000 0.0002
vn 0.0008 -1.0000 -0.0007
vn 0.0003 -1.0000 0.0005
vn 0.0004 -1.0000 0.0003
vn 0.0003 -1.0000 0.0004
vn 0.0005 -1.0000 -0.0000
vn 0.0004 -1.0000 0.0001
vn -0.0000 -1.0000 0.0001
vn -0.0000 -1.0000 0.0040
vn 0.0004 -1.0000 0.0023
vn 0.0000 -1.0000 0.0083
vn 0.0006 -1.0000 0.0084
vn -0.0026 -1.0000 -0.0007
vn 0.0001 -1.0000 0.0079
vn 0.0001 -1.0000 0.0099
vn 0.0000 -0.9999 0.0104
vn -0.0000 -1.0000 0.0087
vn -0.0014 -1.0000 0.0086
vn -0.0053 -1.0000 -0.0013
vn -0.0001 -1.0000 0.0092
vn -0.0005 -1.0000 0.0058
vn -0.0004 -1.0000 0.0066
vn -0.0012 -1.0000 0.0025
vn -0.0047 -1.0000 0.0010
vn -0.0026 -1.0000 0.0075
vn -0.0011 -1.0000 0.0036
vn -0.0015 -1.0000 0.0015
vn -0.0016 -1.0000 0.0011
vn -0.0020 -1.0000 -0.0005
vn -0.0021 -1.0000 -0.0006
vn -0.0017 -1.0000 0.0068
vn -0.0018 -1.0000 0.0004
vn -0.0014 -1.0000 0.0017
vn -0.0016 -1.0000 0.0008
vn -0.0008 -1.0000 0.0016
vn 0.0007 -1.0000 0.0028
vn 0.0008 -1.0000 0.0013
vn -0.0014 -1.0000 0.0012
vn -0.0010 -1.0000 0.0023
vn -0.0001 -1.0000 0.0018
vn -0.0015 -1.0000 0.0010
vn -0.0014 -1.0000 0.0014
vn -0.0007 -1.0000 0.0028
vn -0.0012 -1.0000 0.0010
vn -0.0016 -1.0000 0.0026
vn -0.0009 -1.0000 0.0012
vn 0.0009 -1.0000 -0.0008
vn 0.0002 -1.0000 0.0029
vn -0.0008 -1.0000 0.0018
vn -0.0005 -1.0000 0.0029
vn -0.0004 -1.0000 0.0015
vn -0.0000 -1.0000 0.0029
vn -0.0000 -1.0000 0.0015
usemtl None
s off
f 2//1 33//1 65//1
f 2//2 65//2 66//2
f 3//3 34//3 67//3
f 16//4 90//4 91//4
f 31//5 62//5 68//5
f 4//6 71//6 69//6
f 5//7 36//7 70//7
f 28//8 72//8 60//8
f 4//9 35//9 71//9
f 6//10 72//10 73//10
f 7//11 38//11 74//11
f 7//12 74//12 75//12
f 8//13 39//13 76//13
f 8//14 76//14 77//14
f 9//15 40//15 78//15
f 9//16 78//16 79//16
f 10//17 41//17 80//17
f 10//18 80//18 81//18
f 11//19 42//19 82//19
f 11//19 82//19 83//19
f 12//19 43//19 84//19
f 12//19 84//19 85//19
f 13//19 44//19 86//19
f 13//19 86//19 87//19
f 14//19 45//19 88//19
f 14//19 88//19 89//19
f 18//20 92//20 50//20
f 15//21 46//21 47//21
f 16//22 92//22 48//22
f 6//23 37//23 93//23
f 93//24 70//24 29//24
f 93//25 37//25 70//25
f 37//26 5//26 70//26
f 48//27 49//27 17//27
f 48//28 92//28 49//28
f 92//29 18//29 49//29
f 47//30 90//30 16//30
f 47//31 46//31 90//31
f 46//31 14//31 90//31
f 50//32 91//32 19//32
f 50//33 92//33 91//33
f 92//34 16//34 91//34
f 89//35 51//35 19//35
f 89//33 88//33 51//33
f 88//36 20//36 51//36
f 88//37 87//37 20//37
f 88//19 45//19 87//19
f 45//19 13//19 87//19
f 87//36 52//36 20//36
f 87//38 86//38 52//38
f 86//39 21//39 52//39
f 86//32 85//32 21//32
f 86//19 44//19 85//19
f 44//19 12//19 85//19
f 85//36 53//36 21//36
f 85//40 84//40 53//40
f 84//36 22//36 53//36
f 84//41 83//41 22//41
f 84//19 43//19 83//19
f 43//19 11//19 83//19
f 83//36 54//36 22//36
f 83//39 82//39 54//39
f 82//36 23//36 54//36
f 82//42 81//42 23//42
f 82//43 42//43 81//43
f 42//19 10//19 81//19
f 81//41 55//41 23//41
f 81//44 80//44 55//44
f 80//45 24//45 55//45
f 80//46 79//46 24//46
f 80//47 41//47 79//47
f 41//48 9//48 79//48
f 79//49 56//49 24//49
f 79//50 78//50 56//50
f 78//51 25//51 56//51
f 78//52 77//52 25//52
f 78//53 40//53 77//53
f 40//54 8//54 77//54
f 77//55 57//55 25//55
f 77//56 76//56 57//56
f 76//57 26//57 57//57
f 76//58 75//58 26//58
f 76//59 39//59 75//59
f 39//60 7//60 75//60
f 75//61 58//61 26//61
f 75//62 74//62 58//62
f 74//63 27//63 58//63
f 74//64 73//64 27//64
f 74//65 38//65 73//65
f 38//66 6//66 73//66
f 73//67 59//67 27//67
f 73//68 72//68 59//68
f 72//69 28//69 59//69
f 71//70 67//70 31//70
f 71//71 35//71 67//71
f 35//72 3//72 67//72
f 60//73 93//73 29//73
f 60//74 72//74 93//74
f 72//75 6//75 93//75
f 70//76 69//76 29//76
f 70//71 36//71 69//71
f 36//9 4//9 69//9
f 69//77 68//77 29//77
f 69//78 71//78 68//78
f 71//70 31//70 68//70
f 68//79 61//79 29//79
f 68//80 62//80 61//80
f 62//81 30//81 61//81
f 91//82 89//82 19//82
f 91//4 90//4 89//4
f 90//19 14//19 89//19
f 67//70 66//70 31//70
f 67//83 34//83 66//83
f 34//1 2//1 66//1
f 66//84 63//84 31//84
f 66//85 65//85 63//85
f 65//86 32//86 63//86
f 65//86 64//86 32//86
f 65//87 33//87 64//87
f 33//88 1//88 64//88
