# Blender v2.78 (sub 0) OBJ File: ''
# www.blender.org
mtllib rock3.mtl
o Cube
v -0.142187 1.117524 0.402039
v -0.762851 0.260608 -0.246800
v -0.226860 1.151586 0.226752
v -0.711317 0.545995 -0.021128
v 0.065083 1.023644 -0.206805
v -0.141827 1.180374 0.178593
v -0.747262 0.225213 -0.276243
v -0.736198 0.130015 -0.250274
v -0.738296 0.139262 -0.252247
v -0.747023 0.249008 -0.284348
v -0.670035 0.306062 -0.344806
v -0.454692 0.367048 -0.480864
v -0.761261 0.220922 -0.235107
v -0.740250 0.138589 -0.245839
v -0.783541 0.428929 -0.032821
v -0.772700 0.272856 -0.218020
v -0.708216 0.031899 -0.232410
v -0.726206 0.090311 -0.242330
v -0.089141 1.165486 0.287157
v 0.439360 0.911955 0.515473
v -0.616479 0.164516 0.499037
v -0.195527 0.571657 0.826730
v 0.472309 0.894049 0.512357
v -0.571781 -0.038869 0.431547
v 0.392698 0.193822 0.792414
v 0.590636 0.404291 0.657115
v 0.253520 0.185946 0.836189
v 0.366879 0.188198 0.802060
v 0.388624 0.186261 0.792174
v 0.023476 -0.016859 -0.608909
v -0.140335 -0.018828 -0.520299
v -0.682609 -0.027259 -0.180354
v -0.551372 -0.053785 0.433061
v -0.572221 -0.052521 0.407453
v 0.755691 -0.047531 -0.043704
v 0.475881 -0.063373 0.411580
v -0.100150 -0.065181 0.598589
v 0.327689 -0.020418 -0.597755
v -0.141919 0.756137 0.743359
v 0.096832 0.951520 0.601600
v -0.110913 1.045158 0.523171
v 0.665211 0.722794 -0.054601
v 0.829688 0.146059 0.013421
v 0.825662 0.119129 -0.005059
v 0.535809 0.352713 -0.445605
v 0.530122 0.766581 -0.286580
vn -0.0102 -0.9991 -0.0410
vn -0.5562 -0.7186 0.4174
vn -0.5295 0.6478 -0.5477
vn -0.7330 0.4984 -0.4630
vn -0.9319 -0.1630 -0.3240
vn -0.3722 -0.6987 -0.6110
vn -0.2109 0.9411 0.2644
vn -0.7759 0.4329 0.4589
vn -0.9499 -0.2642 0.1670
vn 0.3848 -0.2357 0.8924
vn 0.2659 0.3318 0.9051
vn 0.1870 -0.8012 0.5684
vn -0.3291 -0.3618 0.8722
vn -0.4537 -0.2832 -0.8450
vn -0.0258 0.6076 0.7939
vn 0.2151 0.8619 0.4593
vn 0.9289 0.2918 0.2279
vn 0.8635 0.1912 -0.4667
vn 0.0384 0.3589 -0.9326
vn 0.7735 -0.1841 -0.6065
vn 0.7749 -0.4323 0.4612
vn 0.4670 0.8778 -0.1063
usemtl Material
s off
f 30//1 38//1 35//1 36//1 37//1 33//1 34//1 32//1 31//1
f 34//2 33//2 24//2
f 6//3 5//3 12//3 11//3 4//3 3//3
f 16//4 15//4 4//4 11//4 10//4 2//4
f 16//5 2//5 10//5 7//5 9//5 8//5 18//5 14//5 13//5
f 31//6 32//6 17//6
f 1//7 19//7 6//7 3//7
f 15//8 21//8 22//8 39//8 41//8 1//8 3//8 4//8
f 34//9 24//9 21//9 15//9 16//9 13//9 14//9 18//9 17//9 32//9
f 28//10 29//10 25//10
f 22//11 27//11 28//11 25//11 26//11 23//11 20//11 40//11 39//11
f 37//12 36//12 29//12 28//12 27//12
f 24//13 33//13 37//13 27//13 22//13 21//13
f 7//14 10//14 11//14 12//14 30//14 31//14 17//14 18//14 8//14 9//14
f 41//15 39//15 40//15
f 41//16 40//16 20//16 19//16 1//16
f 43//17 42//17 23//17 26//17
f 45//18 46//18 42//18 43//18 44//18
f 12//19 5//19 46//19 45//19 38//19 30//19
f 35//20 38//20 45//20 44//20
f 29//21 36//21 35//21 44//21 43//21 26//21 25//21
f 23//22 42//22 46//22 5//22 6//22 19//22 20//22
